<svg width="158" height="48" fill="none" xmlns="http://www.w3.org/2000/svg"><path d="M13.378.045a5.293 5.293 0 00-3.76 1.573L1.558 9.76A5.404 5.404 0 000 13.558V48l144.707-.086a5.292 5.292 0 003.76-1.573l7.971-8.051a5.404 5.404 0 001.557-3.798L158 .043 13.378.045z" fill="#00D15F"/><path opacity=".2" d="M0 17.056l.016 30.931 53.98-.032s6 .278 10.667-.765c8.575-1.915 13.68-5.585 20.063-12.03A47349.983 47349.983 0 01119.608 0L66.813.006l-36.37 36.586s-2.324 2.624-5.466 2.625c-2.35.002-3.693-.958-5.445-2.593C19.02 36.144 0 17.07 0 17.056z" fill="#fff"/><path d="M22.905 35.662L11.988 12.636h4.921s7.801 16.483 7.993 17.318h.095c.196-.835 7.992-17.318 7.992-17.318h4.968L27.041 35.662h-4.136zm36.194-9.747H41.42c.636 3.739 3.358 6.1 6.868 6.1 2.877 0 4.772-1.135 5.746-3.248h4.576c-1.366 4.377-5.306 7.378-10.328 7.378-6.625 0-11.493-4.869-11.493-12.006 0-7.083 4.772-12.006 11.493-12.006 5.991 0 10.91 5.169 10.91 12.006.003.69.003 1.086-.093 1.776zm-17.632-3.74H54.57c-.29-3.152-2.822-5.902-6.282-5.902-3.51-.005-6.142 2.313-6.82 5.901zm41.885 3.74h-17.68c.635 3.739 3.358 6.1 6.868 6.1 2.876 0 4.772-1.135 5.746-3.248h4.576c-1.366 4.377-5.306 7.378-10.328 7.378-6.625 0-11.494-4.869-11.494-12.006 0-7.083 4.772-12.006 11.494-12.006 5.99 0 10.91 5.169 10.91 12.006.003.69.003 1.086-.092 1.776zm-17.631-3.74h13.103c-.291-3.152-2.823-5.902-6.282-5.902-3.512-.005-6.138 2.313-6.821 5.901zm42.424 1.969v11.513H104.2l-.392-3.59c-1.754 2.66-4.82 4.082-7.601 4.082-6.235 0-10.96-5.018-10.96-12.005 0-6.885 5.064-12.006 11.542-12.006 5.948 0 11.356 4.328 11.356 12.006zm-4.488 0c0-5.066-3.309-7.87-6.868-7.87-3.898 0-7.06 3.152-7.06 7.87 0 4.724 2.924 7.869 7.06 7.869 3.512 0 6.868-2.953 6.868-7.87zm7.506 11.512V22.03c0-5.756 3.654-9.886 9.354-9.886 4.576 0 7.013 3.098 7.357 4.182h.095c.339-1.08 2.775-4.183 7.357-4.183 5.699 0 9.354 4.13 9.354 9.887v13.626h-4.481V22.374c0-3.739-1.657-6.002-5.015-6.002-3.363 0-5.015 2.263-5.015 6.1v13.235h-4.481V22.47c0-3.836-1.657-6.099-5.016-6.099-3.358 0-5.015 2.263-5.015 6.002v13.283l-4.494-.001z" fill="#fff"/></svg>