<svg width="636" height="61" viewBox="0 0 636 61" fill="none" xmlns="http://www.w3.org/2000/svg">
<path d="M634 31.9818L636 31.9818L634 31.9818ZM2.00003 4C0.89548 4 3.30483e-05 3.10457 3.30965e-05 2C3.31448e-05 0.895431 0.89548 -9.70998e-07 2.00003 -9.22717e-07L2.00003 4ZM632 61L632 31.9818L636 31.9818L636 61L632 61ZM604 4.00003L2.97415 4L2.97415 -8.80136e-07L604 2.53915e-05L604 4.00003ZM2.97415 4L2.00003 4L2.00003 -9.22717e-07L2.97415 -8.80136e-07L2.97415 4ZM632 31.9818C632 16.5194 619.466 4.00003 604 4.00003L604 2.53915e-05C621.672 2.6164e-05 636 14.3071 636 31.9818L632 31.9818Z" fill="url(#paint0_linear_24718_1273)"/>
<defs>
<linearGradient id="paint0_linear_24718_1273" x1="634" y1="31.5" x2="2.00003" y2="31.5" gradientUnits="userSpaceOnUse">
<stop offset="0.127246" stop-color="#00D15F"/>
<stop offset="0.885742" stop-color="#00D15F" stop-opacity="0"/>
</linearGradient>
</defs>
</svg>
