<svg width="636" height="61" viewBox="0 0 636 61" fill="none" xmlns="http://www.w3.org/2000/svg">
<path d="M1.99997 31.9818L-3.1786e-05 31.9818L1.99997 31.9818ZM634 4C635.105 4 636 3.10457 636 2C636 0.895431 635.105 -9.70998e-07 634 -9.22717e-07L634 4ZM3.99997 61L3.99997 31.9818L-3.1786e-05 31.9818L-3.05176e-05 61L3.99997 61ZM32 4.00003L633.026 4L633.026 -8.80136e-07L32 2.53915e-05L32 4.00003ZM633.026 4L634 4L634 -9.22717e-07L633.026 -8.80136e-07L633.026 4ZM3.99997 31.9818C3.99997 16.5194 16.5344 4.00003 32 4.00003L32 2.53915e-05C14.3284 2.6164e-05 -2.87439e-05 14.3071 -3.1786e-05 31.9818L3.99997 31.9818Z" fill="url(#paint0_linear_24718_1275)"/>
<defs>
<linearGradient id="paint0_linear_24718_1275" x1="1.99997" y1="31.5" x2="634" y2="31.5" gradientUnits="userSpaceOnUse">
<stop offset="0.127246" stop-color="#00D15F"/>
<stop offset="0.885742" stop-color="#00D15F" stop-opacity="0"/>
</linearGradient>
</defs>
</svg>
