<svg width="748" height="88" viewBox="0 0 748 88" fill="none" xmlns="http://www.w3.org/2000/svg">
<path d="M2 4.00079C0.89545 4.00079 3.68901e-06 3.10536 3.73729e-06 2.00079C3.78557e-06 0.896223 0.895451 0.000791405 2 0.000791453L2 4.00079ZM744 87.5L744 31.9917L748 31.9917L748 87.5L744 87.5ZM716 4.00082L3.14679 4.00079L3.14679 0.000791503L716 0.000822663L716 4.00082ZM3.14679 4.00079L2 4.00079L2 0.000791453L3.14679 0.000791503L3.14679 4.00079ZM744 31.9917C744 16.5285 731.465 4.00082 716 4.00082L716 0.000822663C733.672 0.000823436 748 14.3178 748 31.9917L744 31.9917Z" fill="url(#paint0_linear_24718_1274)"/>
<defs>
<linearGradient id="paint0_linear_24718_1274" x1="746" y1="31.4999" x2="2" y2="31.4998" gradientUnits="userSpaceOnUse">
<stop offset="0.127246" stop-color="#00D15F"/>
<stop offset="0.885742" stop-color="#00D15F" stop-opacity="0"/>
</linearGradient>
</defs>
</svg>
