<svg width="844" height="61" viewBox="0 0 844 61" fill="none" xmlns="http://www.w3.org/2000/svg">
<path d="M842 31.9817L844 31.9817L842 31.9817ZM2.5 3.99996C1.39545 3.99996 0.500003 3.10453 0.500003 1.99996C0.500003 0.895395 1.39545 -3.6744e-05 2.5 -3.66957e-05L2.5 3.99996ZM840 61L840 31.9817L844 31.9817L844 61L840 61ZM812 4L3.79395 3.99996L3.79395 -3.66392e-05L812 -1.31134e-06L812 4ZM3.79395 3.99996L2.5 3.99996L2.5 -3.66957e-05L3.79395 -3.66392e-05L3.79395 3.99996ZM840 31.9817C840 16.5193 827.466 4 812 4L812 -1.31134e-06C829.672 -5.38895e-07 844 14.307 844 31.9817L840 31.9817Z" fill="url(#paint0_linear_24718_1272)"/>
<defs>
<linearGradient id="paint0_linear_24718_1272" x1="842" y1="31.5" x2="2.5" y2="31.5" gradientUnits="userSpaceOnUse">
<stop offset="0.127246" stop-color="#00D15F"/>
<stop offset="0.885742" stop-color="#00D15F" stop-opacity="0"/>
</linearGradient>
</defs>
</svg>
