<svg width="158" height="48" viewBox="0 0 158 48" fill="none" xmlns="http://www.w3.org/2000/svg">
<path d="M13.3781 0.0450533C11.9693 0.0450533 10.6127 0.612034 9.61816 1.61822L1.55744 9.76037C0.561311 10.7666 0 12.1353 0 13.5583V48.0003L144.707 47.9141C146.116 47.9141 147.473 47.3471 148.467 46.3409L156.438 38.2898C157.434 37.2836 157.995 35.9149 157.995 34.4918L158 0.043457L13.3781 0.0450533Z" fill="#00D15F"/>
<path opacity="0.2" d="M0 17.0557L0.0158119 47.9872L53.9964 47.9553C53.9964 47.9553 59.9969 48.2332 64.6629 47.1903C73.2375 45.2753 78.343 41.6051 84.7262 35.1591C95.4938 24.2827 119.608 0 119.608 0L66.8132 0.00638956L30.4435 36.5917C30.4435 36.5917 28.1192 39.2158 24.9775 39.2174C22.6279 39.219 21.2839 38.2591 19.532 36.6237C19.0197 36.1445 0 17.0701 0 17.0557Z" fill="white"/>
<path d="M22.9047 35.662L11.9884 12.6362H16.909C16.909 12.6362 24.7104 29.1186 24.9017 29.9539H24.9966C25.1926 29.1186 32.9893 12.6362 32.9893 12.6362H37.9573L27.041 35.662H22.9047Z" fill="white"/>
<path d="M59.0988 25.9149H41.42C42.0556 29.6538 44.7783 32.0143 48.2885 32.0143C51.1646 32.0143 53.0604 30.8804 54.0344 28.7674H58.6103C57.2441 33.1435 53.3039 36.1445 48.2822 36.1445C41.6571 36.1445 36.7888 31.2764 36.7888 24.1389C36.7888 17.0556 41.5607 12.1333 48.2822 12.1333C54.2732 12.1333 59.1921 17.3016 59.1921 24.1389C59.1953 24.8288 59.1953 25.2249 59.0988 25.9149ZM41.4674 22.1744H54.5704C54.2795 19.0233 51.7481 16.2731 48.2885 16.2731C44.7783 16.2683 42.1457 18.5857 41.4674 22.1744Z" fill="white"/>
<path d="M83.3521 25.9149H65.6717C66.3073 29.6538 69.03 32.0143 72.5402 32.0143C75.4163 32.0143 77.3121 30.8804 78.2861 28.7674H82.862C81.4959 33.1435 77.5556 36.1445 72.5339 36.1445C65.9088 36.1445 61.0405 31.2764 61.0405 24.1389C61.0405 17.0556 65.8124 12.1333 72.5339 12.1333C78.5249 12.1333 83.4438 17.3016 83.4438 24.1389C83.447 24.8288 83.447 25.2249 83.3521 25.9149ZM65.7207 22.1744H78.8237C78.5328 19.0233 76.0013 16.2731 72.5418 16.2731C69.03 16.2683 66.4037 18.5857 65.7207 22.1744Z" fill="white"/>
<path d="M108.145 24.1438V35.6574H104.2L103.808 32.0671C102.054 34.7263 98.9882 36.1494 96.2069 36.1494C89.9724 36.1494 85.2479 31.1312 85.2479 24.1438C85.2479 17.2586 90.3108 12.1382 96.7888 12.1382C102.737 12.1382 108.145 16.4664 108.145 24.1438ZM103.657 24.1438C103.657 19.0777 100.348 16.2747 96.7888 16.2747C92.8912 16.2747 89.7289 19.4259 89.7289 24.1438C89.7289 28.8681 92.6525 32.0128 96.7888 32.0128C100.301 32.0128 103.657 29.0597 103.657 24.1438Z" fill="white"/>
<path d="M111.163 35.6558V22.0307C111.163 16.2747 114.817 12.1445 120.517 12.1445C125.093 12.1445 127.53 15.243 127.874 16.3274H127.969C128.308 15.2461 130.744 12.1445 135.326 12.1445C141.025 12.1445 144.68 16.2747 144.68 22.0307V35.6574H140.199V22.3741C140.199 18.6352 138.542 16.3721 135.184 16.3721C131.821 16.3721 130.169 18.6352 130.169 22.4715V35.7069H125.688V22.4715C125.688 18.6352 124.031 16.3721 120.672 16.3721C117.314 16.3721 115.657 18.6352 115.657 22.3741V35.6574L111.163 35.6558Z" fill="white"/>
</svg>
