<svg width="48" height="48" viewBox="0 0 48 48" fill="none" xmlns="http://www.w3.org/2000/svg">
<path d="M13.3781 0.0450533C11.9693 0.0450533 10.6127 0.612034 9.61816 1.61822L1.55744 9.76037C0.561311 10.7666 0 12.1353 0 13.5583V48.0003L144.707 47.9141C146.116 47.9141 147.473 47.3471 148.467 46.3409L156.438 38.2898C157.434 37.2836 157.995 35.9149 157.995 34.4918L158 0.043457L13.3781 0.0450533Z" fill="#00D15F"/>
<path opacity="0.2" d="M0 17.0557L0.0158119 47.9872L53.9964 47.9553C53.9964 47.9553 59.9969 48.2332 64.6629 47.1903C73.2375 45.2753 78.343 41.6051 84.7262 35.1591C95.4938 24.2827 119.608 0 119.608 0L66.8132 0.00638956L30.4435 36.5917C30.4435 36.5917 28.1192 39.2158 24.9775 39.2174C22.6279 39.219 21.2839 38.2591 19.532 36.6237C19.0197 36.1445 0 17.0701 0 17.0557Z" fill="white"/>
</svg>
